<svg id="Layer_1" data-name="Layer 1" xmlns="http://www.w3.org/2000/svg" viewBox="0 0 41.36 51.64"><defs><style>.cls-1{fill:#fff;}.cls-1,.cls-2{fill-rule:evenodd;}.cls-2{fill:#1d1d1b;}</style></defs><path class="cls-1" d="M10.83,7.58c-1.52.19-1.31,1.68-1.31,2.56V38.92c0,1.19.13,2.13,1.73,2.12h23c.56,0,1.43.05,1.95,0a1.44,1.44,0,0,0,1.11-.81,4.48,4.48,0,0,0,.15-1.77V9.67c0-.73,0-1.08-.34-1.58a1.61,1.61,0,0,0-1.38-.52h-23c-.55,0-1.41-.05-1.91,0m3.92,1.09c.84,0,1.72,0,2.53,0a2.41,2.41,0,0,1,1.94.47c.59.35.68.34,1.08.56,1.42.78,2.89,1.61,3.22,3.44.65,3.55-2.73,5.92-3.21,10a5.39,5.39,0,0,0,.39,2.82,7.75,7.75,0,0,0,1.85,2.35l2,2.15c.13.15.27.26.4.42.57.65,1.21,1.27,1.81,2l1,1.1A10.41,10.41,0,0,1,29.62,37,5.7,5.7,0,0,1,30,39.77H23.91c-.45-1.56-.61-3.18-1.26-4.85a40,40,0,0,0-2-4.1c-1.5-2.86-2.7-6.12-1-9.5.72-1.43,1.48-2.55,2.25-3.86s1.55-2.82.85-4.65C21.59,9.73,16.78,9.85,14.75,8.67ZM36.46,35l-1.08-1.6c-.2-.28-.37-.5-.59-.77l-.6-.73c-.33-.41-.69-.76-1-1.08-.1-.12-.2-.24-.31-.35L30.2,27.73c-.94-.88-2.54-2.41-3.38-3.36-.33-.36-.61-.61-1-1.06-.11-.14-.22-.22-.32-.35A8.48,8.48,0,0,1,24,20.42a7.44,7.44,0,0,1,.38-4.61c1-2.23-.06-3.87-1.23-5.43-.36-.47-1.54-1.63-1.58-1.71h1.32c.28,0,.34,0,.55.09A7.16,7.16,0,0,1,25,10.52c.83,1.1.52,3.29.36,4.52-.24,1.75-.4,3.06.49,4.43a10,10,0,0,0,1.26,1.36c.5.49.75.77,1.31,1.27l5.35,5.15c.11.12.23.21.34.33l.31.36c.11.12.22.21.32.33L36.2,30c.35.44.28.35.28,1.06S36.53,34.5,36.46,35Zm0-14.63c0,.55,0,1.93,0,2.3l-1.71-1.41c-.74-.58-1.87-1.48-2.63-2-.31-.22-.57-.45-.86-.67S29,16.65,28.72,16.4a6.3,6.3,0,0,1-1.44-3.17,13.27,13.27,0,0,0-1.09-3.58c-.12-.24-.52-.74-.52-1,.33,0,.46-.07.63.13a4.69,4.69,0,0,1,.9,1.44,20.2,20.2,0,0,1,.7,2.4c.73,2.69,2.59,3,5,4.32A26.57,26.57,0,0,1,36,19.26C36.55,19.83,36.48,19.83,36.48,20.32Zm0-6.31a14.93,14.93,0,0,1,0,1.64l-1.89-1.58C33.24,13,31.08,13,30.24,11.48a5.07,5.07,0,0,1-.36-1.38,10,10,0,0,1-.25-1.43h.64c.37.45.52,1.61,1.19,2.13s2.84,1.28,4.21,2.37C35.88,13.34,36.45,13.75,36.48,14ZM16.59,37.4A6,6,0,0,1,16,39.9c-.37,0-2.74,0-3.32,0a3,3,0,0,1-1.52-.17c-.39-.27-.28-.78-.28-1.37V26.78a1.94,1.94,0,0,1,.31-1.33,13.33,13.33,0,0,1,2-3l.21-.22a16.06,16.06,0,0,1,3.41-2.82,5,5,0,0,0,1-.69,10.73,10.73,0,0,0,2.61-2.36c.86-1.35.28-2.5-.84-3.32a5.41,5.41,0,0,0-2.44-.85c-.69-.08-2.51-.14-3.21-.12a13.81,13.81,0,0,1-3.08,0,2.56,2.56,0,0,1,0-1.2,16.48,16.48,0,0,1,3,0c1,0,2,.05,3,.15A6,6,0,0,1,21,13a2.93,2.93,0,0,1,.56,1,4.59,4.59,0,0,1-1.69,4.36l-.87.71-.42.36-1.19,1.12a11.37,11.37,0,0,0-2.47,3.79,6.76,6.76,0,0,0-.4,2.71,8.35,8.35,0,0,0,.6,2.48,36.72,36.72,0,0,1,1.26,5A9.19,9.19,0,0,1,16.59,37.4Z"/><path class="cls-2" d="M10.78,10.93a2.56,2.56,0,0,0,0,1.2,13.81,13.81,0,0,0,3.08,0c.7,0,2.52,0,3.21.12a5.41,5.41,0,0,1,2.44.85c1.12.82,1.7,2,.84,3.32a10.73,10.73,0,0,1-2.61,2.36,5,5,0,0,1-1,.69,16.06,16.06,0,0,0-3.41,2.82l-.21.22a13.33,13.33,0,0,0-2,3,1.94,1.94,0,0,0-.31,1.33V38.37c0,.59-.11,1.1.28,1.37a3,3,0,0,0,1.52.17c.58,0,2.95,0,3.32,0a6,6,0,0,0,.61-2.5,9.19,9.19,0,0,0-.21-2.87,36.72,36.72,0,0,0-1.26-5,8.35,8.35,0,0,1-.6-2.48,6.76,6.76,0,0,1,.4-2.71,11.37,11.37,0,0,1,2.47-3.79l1.19-1.12.42-.36.87-.71A4.59,4.59,0,0,0,21.56,14,2.93,2.93,0,0,0,21,13a6,6,0,0,0-4.27-2c-1-.1-2-.12-3-.15a16.48,16.48,0,0,0-3,0"/><path class="cls-2" d="M14.75,8.67c2,1.18,6.84,1.06,8,4.14.7,1.83-.08,3.33-.85,4.65s-1.53,2.43-2.25,3.86c-1.71,3.38-.51,6.64,1,9.5a40,40,0,0,1,2,4.1c.65,1.67.81,3.29,1.26,4.85H30A5.7,5.7,0,0,0,29.62,37a10.41,10.41,0,0,0-1.88-3.09l-1-1.1c-.6-.68-1.24-1.3-1.81-2-.13-.16-.27-.27-.4-.42l-2-2.15a7.75,7.75,0,0,1-1.85-2.35,5.39,5.39,0,0,1-.39-2.82c.48-4.06,3.86-6.43,3.21-10-.33-1.83-1.8-2.66-3.22-3.44-.4-.22-.49-.21-1.08-.56a2.41,2.41,0,0,0-1.94-.47c-.81,0-1.69,0-2.53,0"/><path class="cls-2" d="M36.46,35c.07-.45,0-3,0-3.86s.07-.62-.28-1.06l-1.5-1.76c-.1-.12-.21-.21-.32-.33l-.31-.36c-.11-.12-.23-.21-.34-.33L28.38,22.1c-.56-.5-.81-.78-1.31-1.27a10,10,0,0,1-1.26-1.36c-.89-1.37-.73-2.68-.49-4.43.16-1.23.47-3.42-.36-4.52a7.16,7.16,0,0,0-1.49-1.76c-.21-.13-.27-.09-.55-.09H21.6c0,.08,1.22,1.24,1.58,1.71,1.17,1.56,2.22,3.2,1.23,5.43A7.44,7.44,0,0,0,24,20.42,8.48,8.48,0,0,0,25.53,23c.1.13.21.21.32.35.36.45.64.7,1,1.06.84.95,2.44,2.48,3.38,3.36l2.71,2.69c.11.11.21.23.31.35.28.32.64.67,1,1.08l.6.73c.22.27.39.49.59.77Z"/><path class="cls-1" d="M28.45,43.89c2.42,0,4.89,0,7.32,0v.62c-1.51,0-3,0-4.51,0a4.11,4.11,0,0,0-2,.23,1.72,1.72,0,0,0,.91,3.19h4.78c.11,0,.35-.37.45-.5l.39-.49v1h1.74c0-1.23,0-2.84,0-4.11a1.25,1.25,0,0,0-1.33-1.36H29.46c-.15,0-.44.53-.53.67a5.31,5.31,0,0,0-.48.76m6.42,2a9,9,0,0,1,.91-1v1.64c-.3,0-5.33,0-5.42,0a.31.31,0,0,1-.16-.43c.09-.18.32-.16.55-.15C32,45.94,33.7,46,34.87,45.93Z"/><path class="cls-1" d="M19,47.93c2.2,0,4.42,0,6.62,0,.82,0,1.83,0,2.22-1.11a1.72,1.72,0,0,0-.95-2.2,53.34,53.34,0,0,0-5.7-.11c-.29,0-.54,0-.51-.34s.26-.27.55-.27H27.1l.9-1.41c-.4,0-6.61,0-7.2,0a1.73,1.73,0,0,0-1.23,3.05,1.92,1.92,0,0,0,1.43.41h4.5c.3,0,.65-.06.74.18.23.63-.92.44-1.32.44H20.41c-.48,0-.42-.07-.64.26A13.3,13.3,0,0,0,19,47.93"/><path class="cls-1" d="M9.52,47.93a14.17,14.17,0,0,0,1.74,0v-2c1.26,0,2.52,0,3.78,0,2.16,0,1.74-.27,1.77,2h1.54a16.86,16.86,0,0,0-.08-2.8c-.33-.82-1.24-.67-2.21-.67H12.46c-.6,0-.4-.1-1,.74l-.16.19V43.87c.28-.06,5.88,0,6.37,0,.13-.2.91-1.26.93-1.39H11.33c-1.5,0-1.81.36-1.81,1.83,0,1.21,0,2.43,0,3.64"/><path class="cls-2" d="M36.47,22.62c0-.37,0-1.75,0-2.3s.07-.49-.48-1.06A26.57,26.57,0,0,0,32.86,17c-2.37-1.33-4.23-1.63-5-4.32a20.2,20.2,0,0,0-.7-2.4,4.69,4.69,0,0,0-.9-1.44c-.17-.2-.3-.13-.63-.13,0,.24.4.74.52,1a13.27,13.27,0,0,1,1.09,3.58,6.3,6.3,0,0,0,1.44,3.17c.23.25,2.18,1.83,2.55,2.11s.55.45.86.67c.76.55,1.89,1.45,2.63,2Z"/><path class="cls-2" d="M36.46,15.65a14.93,14.93,0,0,0,0-1.64c0-.26-.6-.67-.81-.84C34.3,12.08,32,11.25,31.46,10.8s-.82-1.68-1.19-2.13h-.64a10,10,0,0,0,.25,1.43,5.07,5.07,0,0,0,.36,1.38c.84,1.54,3,1.48,4.33,2.59Z"/><path class="cls-1" d="M38.9,40.64a1.09,1.09,0,1,1,0,2.17,1.09,1.09,0,0,1,0-2.17m-.23.9h.22a1.18,1.18,0,0,0,.26,0,.16.16,0,0,0,.08-.06.18.18,0,0,0,0-.11.21.21,0,0,0,0-.11.2.2,0,0,0-.11-.06h-.44Zm-.29.82V40.93H39a1.16,1.16,0,0,1,.33,0,.33.33,0,0,1,.17.14.43.43,0,0,1,.06.22.4.4,0,0,1-.09.27.46.46,0,0,1-.28.13l.15.12a1.43,1.43,0,0,1,.16.23l.18.28h-.35l-.2-.31L39,41.84a.16.16,0,0,0-.08-.06h-.21v.59Zm.52-2a1.38,1.38,0,1,1-1.38,1.38A1.38,1.38,0,0,1,38.9,40.35Z"/></svg>